{"metaInfo":{"appName":"pianoTAB","extension":".piano","description":"pianoTAB score file","version":"1.0","author":"pianoTAB Team","license":"MIT"},"header":{"title":"myTitle","subtitle":"mySubtitle","composer":"myComposer","arranger":"","lyricist":"","publisher":"","copyright":"Copyright \u00a9 2025, pianoTAB. All rights reserved.","created":"21-11-2025_01:50:04","modificationStamp":"21-11-2025_02:30:40","genre":"","comment":""},"properties":{"globalNote":{"color":"#000000","colorLeftMidiNote":"#dddddd","colorRightMidiNote":"#dddddd","stemWidthMm":0.25,"stemLengthMm":10.0,"beamWidthMm":0.25,"blackNoteDirection":"v","leftDotSizeScale":0.3,"noteHeadVisible?":true,"stemVisible?":true,"midiNoteVisible?":true,"accidentalVisible?":true,"noteStopVisible?":true,"continuationDotVisible?":true,"leftDotVisible?":true,"stopSignType":"pianoTAB","stopSignColor":"#000000"},"globalArticulation":{"color":"#000000","visible?":true},"globalBeam":{"color":"#000000","widthMm":4.0,"slant":5.0,"visible?":true},"globalGraceNote":{"color":"#000000","visible?":true},"globalCountLine":{"color":"#000000","widthMm":1.0,"dashPattern":[],"visible?":true},"globalSlur":{"color":"#000000","middleWidthMm":1.0,"startEndWidthMm":0.5,"visible?":true},"globalText":{"size":12,"color":"#000000","visible?":true},"globalBasegrid":{"gridlineColor":"#000000","gridlineWidthMm":0.125,"gridlineDashPattern":[2,2],"gridlineVisible?":true,"barlineColor":"#000000","barlineWidthMm":0.25,"barlineVisible?":true},"globalMeasureNumbering":{"color":"#000000","fontSize":12,"measureNumberingVisible?":true,"inStepsOf":1,"skipCount":[],"numberAtStartOfLine?":false},"globalStave":{"twoLineColor":"#000000","threeLineColor":"#000000","clefColor":"#000000","twoLineWidth":0.125,"threeLineWidth":0.25,"clefWidth":0.125,"visible?":true,"clefDashPattern":[2,2]},"globalPage":{"width":210.0,"height":297.0,"marginLeft":5.0,"marginRight":5.0,"marginUp":10.0,"marginDown":10.0,"headerHeight":12.5,"footerHeight":12.5},"globalSection":{"color":"#000000","lineWidth":1.0,"visible?":true},"globalStartRepeat":{"color":"#000000","lineWidth":1.0,"visible?":true},"globalEndrepeat":{"color":"#000000","lineWidth":1.0,"visible?":true}},"baseGrid":[{"numerator":4,"denominator":4,"gridTimes":[256.0,512.0,768.0],"measureAmount":16,"timeSignatureIndicatorVisible?":true}],"lineBreak":[{"id":1,"time":0.0,"type":"locked","staveRange":[{"lowestKey":0,"highestKey":0}]}],"stave":[{"name":"Stave 1","scale":1.0,"event":{"note":[{"id":16,"time":0.0,"duration":256.0,"pitch":58,"accidental":0,"velocity":100,"art":[],"hand":">","color":null,"colorMidiNote":null,"blackNoteDirection":null,"stemLengthMm":null,"stopSignColor":null},{"id":55,"time":0.0,"duration":256.0,"pitch":42,"accidental":0,"velocity":100,"art":[],"hand":"<","color":null,"colorMidiNote":null,"blackNoteDirection":null,"stemLengthMm":null,"stopSignColor":null},{"id":58,"time":0.0,"duration":512.0,"pitch":49,"accidental":0,"velocity":100,"art":[],"hand":"<","color":null,"colorMidiNote":null,"blackNoteDirection":null,"stemLengthMm":null,"stopSignColor":null},{"id":17,"time":256.0,"duration":256.0,"pitch":59,"accidental":0,"velocity":100,"art":[],"hand":">","color":null,"colorMidiNote":null,"blackNoteDirection":null,"stemLengthMm":null,"stopSignColor":null},{"id":56,"time":256.0,"duration":256.0,"pitch":44,"accidental":0,"velocity":100,"art":[],"hand":"<","color":null,"colorMidiNote":null,"blackNoteDirection":null,"stemLengthMm":null,"stopSignColor":null},{"id":18,"time":512.0,"duration":256.0,"pitch":61,"accidental":0,"velocity":100,"art":[],"hand":">","color":null,"colorMidiNote":null,"blackNoteDirection":null,"stemLengthMm":null,"stopSignColor":null},{"id":57,"time":512.0,"duration":512.0,"pitch":46,"accidental":0,"velocity":100,"art":[],"hand":"<","color":null,"colorMidiNote":null,"blackNoteDirection":null,"stemLengthMm":null,"stopSignColor":null},{"id":59,"time":512.0,"duration":512.0,"pitch":49,"accidental":0,"velocity":100,"art":[],"hand":"<","color":null,"colorMidiNote":null,"blackNoteDirection":null,"stemLengthMm":null,"stopSignColor":null},{"id":19,"time":768.0,"duration":256.0,"pitch":54,"accidental":0,"velocity":100,"art":[],"hand":">","color":null,"colorMidiNote":null,"blackNoteDirection":null,"stemLengthMm":null,"stopSignColor":null},{"id":20,"time":1024.0,"duration":256.0,"pitch":56,"accidental":0,"velocity":100,"art":[],"hand":">","color":null,"colorMidiNote":null,"blackNoteDirection":null,"stemLengthMm":null,"stopSignColor":null},{"id":60,"time":1024.0,"duration":512.0,"pitch":47,"accidental":0,"velocity":100,"art":[],"hand":"<","color":null,"colorMidiNote":null,"blackNoteDirection":null,"stemLengthMm":null,"stopSignColor":null},{"id":61,"time":1024.0,"duration":512.0,"pitch":51,"accidental":0,"velocity":100,"art":[],"hand":"<","color":null,"colorMidiNote":null,"blackNoteDirection":null,"stemLengthMm":null,"stopSignColor":null},{"id":21,"time":1280.0,"duration":256.0,"pitch":53,"accidental":0,"velocity":100,"art":[],"hand":">","color":null,"colorMidiNote":null,"blackNoteDirection":null,"stemLengthMm":null,"stopSignColor":null},{"id":22,"time":1536.0,"duration":256.0,"pitch":51,"accidental":0,"velocity":100,"art":[],"hand":">","color":null,"colorMidiNote":null,"blackNoteDirection":null,"stemLengthMm":null,"stopSignColor":null},{"id":62,"time":1536.0,"duration":256.0,"pitch":46,"accidental":0,"velocity":100,"art":[],"hand":"<","color":null,"colorMidiNote":null,"blackNoteDirection":null,"stemLengthMm":null,"stopSignColor":null},{"id":64,"time":1536.0,"duration":256.0,"pitch":49,"accidental":0,"velocity":100,"art":[],"hand":"<","color":null,"colorMidiNote":null,"blackNoteDirection":null,"stemLengthMm":null,"stopSignColor":null},{"id":24,"time":1792.0,"duration":256.0,"pitch":49,"accidental":0,"velocity":100,"art":[],"hand":">","color":null,"colorMidiNote":null,"blackNoteDirection":null,"stemLengthMm":null,"stopSignColor":null},{"id":65,"time":1792.0,"duration":256.0,"pitch":47,"accidental":0,"velocity":100,"art":[],"hand":"<","color":null,"colorMidiNote":null,"blackNoteDirection":null,"stemLengthMm":null,"stopSignColor":null},{"id":66,"time":1792.0,"duration":256.0,"pitch":37,"accidental":0,"velocity":100,"art":[],"hand":"<","color":null,"colorMidiNote":null,"blackNoteDirection":null,"stemLengthMm":null,"stopSignColor":null},{"id":25,"time":2048.0,"duration":256.0,"pitch":58,"accidental":0,"velocity":100,"art":[],"hand":">","color":null,"colorMidiNote":null,"blackNoteDirection":null,"stemLengthMm":null,"stopSignColor":null},{"id":67,"time":2048.0,"duration":256.0,"pitch":42,"accidental":0,"velocity":100,"art":[],"hand":"<","color":null,"colorMidiNote":null,"blackNoteDirection":null,"stemLengthMm":null,"stopSignColor":null},{"id":70,"time":2048.0,"duration":384.0,"pitch":49,"accidental":0,"velocity":100,"art":[],"hand":"<","color":null,"colorMidiNote":null,"blackNoteDirection":null,"stemLengthMm":null,"stopSignColor":null},{"id":26,"time":2304.0,"duration":256.0,"pitch":59,"accidental":0,"velocity":100,"art":[],"hand":">","color":null,"colorMidiNote":null,"blackNoteDirection":null,"stemLengthMm":null,"stopSignColor":null},{"id":68,"time":2304.0,"duration":256.0,"pitch":44,"accidental":0,"velocity":100,"art":[],"hand":"<","color":null,"colorMidiNote":null,"blackNoteDirection":null,"stemLengthMm":null,"stopSignColor":null},{"id":111,"time":2432.0,"duration":128.0,"pitch":53,"accidental":0,"velocity":100,"art":[],"hand":"<","color":null,"colorMidiNote":null,"blackNoteDirection":null,"stemLengthMm":null,"stopSignColor":null},{"id":27,"time":2560.0,"duration":256.0,"pitch":61,"accidental":0,"velocity":100,"art":[],"hand":">","color":null,"colorMidiNote":null,"blackNoteDirection":null,"stemLengthMm":null,"stopSignColor":null},{"id":69,"time":2560.0,"duration":512.0,"pitch":46,"accidental":0,"velocity":100,"art":[],"hand":"<","color":null,"colorMidiNote":null,"blackNoteDirection":null,"stemLengthMm":null,"stopSignColor":null},{"id":112,"time":2560.0,"duration":256.0,"pitch":56,"accidental":0,"velocity":100,"art":[],"hand":">","color":null,"colorMidiNote":null,"blackNoteDirection":null,"stemLengthMm":null,"stopSignColor":null},{"id":28,"time":2816.0,"duration":256.0,"pitch":58,"accidental":0,"velocity":100,"art":[],"hand":">","color":null,"colorMidiNote":null,"blackNoteDirection":null,"stemLengthMm":null,"stopSignColor":null},{"id":113,"time":2816.0,"duration":256.0,"pitch":49,"accidental":0,"velocity":100,"art":[],"hand":"<","color":null,"colorMidiNote":null,"blackNoteDirection":null,"stemLengthMm":null,"stopSignColor":null},{"id":29,"time":3072.0,"duration":256.0,"pitch":54,"accidental":0,"velocity":100,"art":[],"hand":">","color":null,"colorMidiNote":null,"blackNoteDirection":null,"stemLengthMm":null,"stopSignColor":null},{"id":72,"time":3072.0,"duration":256.0,"pitch":51,"accidental":0,"velocity":100,"art":[],"hand":"<","color":null,"colorMidiNote":null,"blackNoteDirection":null,"stemLengthMm":null,"stopSignColor":null},{"id":30,"time":3328.0,"duration":256.0,"pitch":53,"accidental":0,"velocity":100,"art":[],"hand":">","color":null,"colorMidiNote":null,"blackNoteDirection":null,"stemLengthMm":null,"stopSignColor":null},{"id":73,"time":3328.0,"duration":256.0,"pitch":46,"accidental":0,"velocity":100,"art":[],"hand":"<","color":null,"colorMidiNote":null,"blackNoteDirection":null,"stemLengthMm":null,"stopSignColor":null},{"id":74,"time":3328.0,"duration":256.0,"pitch":49,"accidental":0,"velocity":100,"art":[],"hand":"<","color":null,"colorMidiNote":null,"blackNoteDirection":null,"stemLengthMm":null,"stopSignColor":null},{"id":31,"time":3584.0,"duration":384.0,"pitch":56,"accidental":0,"velocity":100,"art":[],"hand":">","color":null,"colorMidiNote":null,"blackNoteDirection":null,"stemLengthMm":null,"stopSignColor":null},{"id":75,"time":3584.0,"duration":512.0,"pitch":47,"accidental":0,"velocity":100,"art":[],"hand":"<","color":null,"colorMidiNote":null,"blackNoteDirection":null,"stemLengthMm":null,"stopSignColor":null},{"id":76,"time":3584.0,"duration":256.0,"pitch":39,"accidental":0,"velocity":100,"art":[],"hand":"<","color":null,"colorMidiNote":null,"blackNoteDirection":null,"stemLengthMm":null,"stopSignColor":null},{"id":77,"time":3840.0,"duration":256.0,"pitch":35,"accidental":0,"velocity":100,"art":[],"hand":"<","color":null,"colorMidiNote":null,"blackNoteDirection":null,"stemLengthMm":null,"stopSignColor":null},{"id":32,"time":3968.0,"duration":128.0,"pitch":56,"accidental":0,"velocity":100,"art":[],"hand":">","color":null,"colorMidiNote":null,"blackNoteDirection":null,"stemLengthMm":null,"stopSignColor":null},{"id":33,"time":4096.0,"duration":256.0,"pitch":58,"accidental":0,"velocity":100,"art":[],"hand":">","color":null,"colorMidiNote":null,"blackNoteDirection":null,"stemLengthMm":null,"stopSignColor":null},{"id":78,"time":4096.0,"duration":256.0,"pitch":43,"accidental":0,"velocity":100,"art":[],"hand":"<","color":null,"colorMidiNote":null,"blackNoteDirection":null,"stemLengthMm":null,"stopSignColor":null},{"id":82,"time":4096.0,"duration":128.0,"pitch":51,"accidental":0,"velocity":100,"art":[],"hand":"<","color":null,"colorMidiNote":null,"blackNoteDirection":null,"stemLengthMm":null,"stopSignColor":null},{"id":83,"time":4224.0,"duration":128.0,"pitch":49,"accidental":0,"velocity":100,"art":[],"hand":"<","color":null,"colorMidiNote":null,"blackNoteDirection":null,"stemLengthMm":null,"stopSignColor":null},{"id":34,"time":4352.0,"duration":256.0,"pitch":59,"accidental":0,"velocity":100,"art":[],"hand":">","color":null,"colorMidiNote":null,"blackNoteDirection":null,"stemLengthMm":null,"stopSignColor":null},{"id":79,"time":4352.0,"duration":256.0,"pitch":44,"accidental":0,"velocity":100,"art":[],"hand":"<","color":null,"colorMidiNote":null,"blackNoteDirection":null,"stemLengthMm":null,"stopSignColor":null},{"id":84,"time":4352.0,"duration":128.0,"pitch":47,"accidental":0,"velocity":100,"art":[],"hand":"<","color":null,"colorMidiNote":null,"blackNoteDirection":null,"stemLengthMm":null,"stopSignColor":null},{"id":85,"time":4480.0,"duration":128.0,"pitch":51,"accidental":0,"velocity":100,"art":[],"hand":"<","color":null,"colorMidiNote":null,"blackNoteDirection":null,"stemLengthMm":null,"stopSignColor":null},{"id":35,"time":4608.0,"duration":128.0,"pitch":58,"accidental":0,"velocity":100,"art":[],"hand":">","color":null,"colorMidiNote":null,"blackNoteDirection":null,"stemLengthMm":null,"stopSignColor":null},{"id":80,"time":4608.0,"duration":256.0,"pitch":46,"accidental":0,"velocity":100,"art":[],"hand":"<","color":null,"colorMidiNote":null,"blackNoteDirection":null,"stemLengthMm":null,"stopSignColor":null},{"id":86,"time":4608.0,"duration":128.0,"pitch":50,"accidental":0,"velocity":100,"art":[],"hand":"<","color":null,"colorMidiNote":null,"blackNoteDirection":null,"stemLengthMm":null,"stopSignColor":null},{"id":36,"time":4736.0,"duration":128.0,"pitch":56,"accidental":0,"velocity":100,"art":[],"hand":">","color":null,"colorMidiNote":null,"blackNoteDirection":null,"stemLengthMm":null,"stopSignColor":null},{"id":87,"time":4736.0,"duration":128.0,"pitch":53,"accidental":0,"velocity":100,"art":[],"hand":"<","color":null,"colorMidiNote":null,"blackNoteDirection":null,"stemLengthMm":null,"stopSignColor":null},{"id":37,"time":4864.0,"duration":256.0,"pitch":51,"accidental":0,"velocity":100,"art":[],"hand":">","color":null,"colorMidiNote":null,"blackNoteDirection":null,"stemLengthMm":null,"stopSignColor":null},{"id":81,"time":4864.0,"duration":256.0,"pitch":47,"accidental":0,"velocity":100,"art":[],"hand":"<","color":null,"colorMidiNote":null,"blackNoteDirection":null,"stemLengthMm":null,"stopSignColor":null},{"id":38,"time":5120.0,"duration":128.0,"pitch":53,"accidental":0,"velocity":100,"art":[],"hand":">","color":null,"colorMidiNote":null,"blackNoteDirection":null,"stemLengthMm":null,"stopSignColor":null},{"id":88,"time":5120.0,"duration":256.0,"pitch":44,"accidental":0,"velocity":100,"art":[],"hand":"<","color":null,"colorMidiNote":null,"blackNoteDirection":null,"stemLengthMm":null,"stopSignColor":null},{"id":89,"time":5120.0,"duration":256.0,"pitch":47,"accidental":0,"velocity":100,"art":[],"hand":"<","color":null,"colorMidiNote":null,"blackNoteDirection":null,"stemLengthMm":null,"stopSignColor":null},{"id":39,"time":5248.0,"duration":128.0,"pitch":54,"accidental":0,"velocity":100,"art":[],"hand":">","color":null,"colorMidiNote":null,"blackNoteDirection":null,"stemLengthMm":null,"stopSignColor":null},{"id":40,"time":5376.0,"duration":128.0,"pitch":58,"accidental":0,"velocity":100,"art":[],"hand":">","color":null,"colorMidiNote":null,"blackNoteDirection":null,"stemLengthMm":null,"stopSignColor":null},{"id":90,"time":5376.0,"duration":256.0,"pitch":46,"accidental":0,"velocity":100,"art":[],"hand":"<","color":null,"colorMidiNote":null,"blackNoteDirection":null,"stemLengthMm":null,"stopSignColor":null},{"id":91,"time":5376.0,"duration":256.0,"pitch":49,"accidental":0,"velocity":100,"art":[],"hand":"<","color":null,"colorMidiNote":null,"blackNoteDirection":null,"stemLengthMm":null,"stopSignColor":null},{"id":41,"time":5504.0,"duration":128.0,"pitch":56,"accidental":0,"velocity":100,"art":[],"hand":">","color":null,"colorMidiNote":null,"blackNoteDirection":null,"stemLengthMm":null,"stopSignColor":null},{"id":42,"time":5632.0,"duration":128.0,"pitch":51,"accidental":0,"velocity":100,"art":[],"hand":">","color":null,"colorMidiNote":null,"blackNoteDirection":null,"stemLengthMm":null,"stopSignColor":null},{"id":92,"time":5632.0,"duration":512.0,"pitch":47,"accidental":0,"velocity":100,"art":[],"hand":"<","color":null,"colorMidiNote":null,"blackNoteDirection":null,"stemLengthMm":null,"stopSignColor":null},{"id":43,"time":5760.0,"duration":128.0,"pitch":53,"accidental":0,"velocity":100,"art":[],"hand":">","color":null,"colorMidiNote":null,"blackNoteDirection":null,"stemLengthMm":null,"stopSignColor":null},{"id":44,"time":5888.0,"duration":128.0,"pitch":51,"accidental":0,"velocity":100,"art":[],"hand":">","color":null,"colorMidiNote":null,"blackNoteDirection":null,"stemLengthMm":null,"stopSignColor":null},{"id":94,"time":5888.0,"duration":256.0,"pitch":37,"accidental":0,"velocity":100,"art":[],"hand":"<","color":null,"colorMidiNote":null,"blackNoteDirection":null,"stemLengthMm":null,"stopSignColor":null},{"id":45,"time":6016.0,"duration":128.0,"pitch":49,"accidental":0,"velocity":100,"art":[],"hand":">","color":null,"colorMidiNote":null,"blackNoteDirection":null,"stemLengthMm":null,"stopSignColor":null},{"id":46,"time":6144.0,"duration":256.0,"pitch":49,"accidental":0,"velocity":100,"art":[],"hand":">","color":null,"colorMidiNote":null,"blackNoteDirection":null,"stemLengthMm":null,"stopSignColor":null},{"id":95,"time":6144.0,"duration":128.0,"pitch":42,"accidental":0,"velocity":100,"art":[],"hand":"<","color":null,"colorMidiNote":null,"blackNoteDirection":null,"stemLengthMm":null,"stopSignColor":null},{"id":96,"time":6144.0,"duration":128.0,"pitch":46,"accidental":0,"velocity":100,"art":[],"hand":"<","color":null,"colorMidiNote":null,"blackNoteDirection":null,"stemLengthMm":null,"stopSignColor":null},{"id":97,"time":6272.0,"duration":384.0,"pitch":44,"accidental":0,"velocity":100,"art":[],"hand":"<","color":null,"colorMidiNote":null,"blackNoteDirection":null,"stemLengthMm":null,"stopSignColor":null},{"id":98,"time":6272.0,"duration":384.0,"pitch":47,"accidental":0,"velocity":100,"art":[],"hand":"<","color":null,"colorMidiNote":null,"blackNoteDirection":null,"stemLengthMm":null,"stopSignColor":null},{"id":47,"time":6400.0,"duration":128.0,"pitch":54,"accidental":0,"velocity":100,"art":[],"hand":">","color":null,"colorMidiNote":null,"blackNoteDirection":null,"stemLengthMm":null,"stopSignColor":null},{"id":48,"time":6528.0,"duration":128.0,"pitch":56,"accidental":0,"velocity":100,"art":[],"hand":">","color":null,"colorMidiNote":null,"blackNoteDirection":null,"stemLengthMm":null,"stopSignColor":null},{"id":49,"time":6656.0,"duration":256.0,"pitch":58,"accidental":0,"velocity":100,"art":[],"hand":">","color":null,"colorMidiNote":null,"blackNoteDirection":null,"stemLengthMm":null,"stopSignColor":null},{"id":99,"time":6656.0,"duration":128.0,"pitch":46,"accidental":0,"velocity":100,"art":[],"hand":"<","color":null,"colorMidiNote":null,"blackNoteDirection":null,"stemLengthMm":null,"stopSignColor":null},{"id":100,"time":6656.0,"duration":128.0,"pitch":49,"accidental":0,"velocity":100,"art":[],"hand":"<","color":null,"colorMidiNote":null,"blackNoteDirection":null,"stemLengthMm":null,"stopSignColor":null},{"id":101,"time":6784.0,"duration":256.0,"pitch":47,"accidental":0,"velocity":100,"art":[],"hand":"<","color":null,"colorMidiNote":null,"blackNoteDirection":null,"stemLengthMm":null,"stopSignColor":null},{"id":102,"time":6784.0,"duration":256.0,"pitch":49,"accidental":0,"velocity":100,"art":[],"hand":"<","color":null,"colorMidiNote":null,"blackNoteDirection":null,"stemLengthMm":null,"stopSignColor":null},{"id":50,"time":6912.0,"duration":256.0,"pitch":61,"accidental":0,"velocity":100,"art":[],"hand":">","color":null,"colorMidiNote":null,"blackNoteDirection":null,"stemLengthMm":null,"stopSignColor":null},{"id":103,"time":7040.0,"duration":512.0,"pitch":54,"accidental":0,"velocity":100,"art":[],"hand":"<","color":null,"colorMidiNote":null,"blackNoteDirection":null,"stemLengthMm":null,"stopSignColor":null},{"id":104,"time":7040.0,"duration":128.0,"pitch":49,"accidental":0,"velocity":100,"art":[],"hand":"<","color":null,"colorMidiNote":null,"blackNoteDirection":null,"stemLengthMm":null,"stopSignColor":null},{"id":51,"time":7168.0,"duration":128.0,"pitch":59,"accidental":0,"velocity":100,"art":[],"hand":">","color":null,"colorMidiNote":null,"blackNoteDirection":null,"stemLengthMm":null,"stopSignColor":null},{"id":105,"time":7168.0,"duration":128.0,"pitch":51,"accidental":0,"velocity":100,"art":[],"hand":"<","color":null,"colorMidiNote":null,"blackNoteDirection":null,"stemLengthMm":null,"stopSignColor":null},{"id":52,"time":7296.0,"duration":128.0,"pitch":58,"accidental":0,"velocity":100,"art":[],"hand":">","color":null,"colorMidiNote":null,"blackNoteDirection":null,"stemLengthMm":null,"stopSignColor":null},{"id":106,"time":7296.0,"duration":128.0,"pitch":49,"accidental":0,"velocity":100,"art":[],"hand":"<","color":null,"colorMidiNote":null,"blackNoteDirection":null,"stemLengthMm":null,"stopSignColor":null},{"id":53,"time":7424.0,"duration":256.0,"pitch":56,"accidental":0,"velocity":100,"art":[],"hand":">","color":null,"colorMidiNote":null,"blackNoteDirection":null,"stemLengthMm":null,"stopSignColor":null},{"id":107,"time":7424.0,"duration":128.0,"pitch":47,"accidental":0,"velocity":100,"art":[],"hand":"<","color":null,"colorMidiNote":null,"blackNoteDirection":null,"stemLengthMm":null,"stopSignColor":null},{"id":108,"time":7552.0,"duration":128.0,"pitch":49,"accidental":0,"velocity":100,"art":[],"hand":"<","color":null,"colorMidiNote":null,"blackNoteDirection":null,"stemLengthMm":null,"stopSignColor":null},{"id":109,"time":7552.0,"duration":128.0,"pitch":53,"accidental":0,"velocity":100,"art":[],"hand":"<","color":null,"colorMidiNote":null,"blackNoteDirection":null,"stemLengthMm":null,"stopSignColor":null},{"id":54,"time":7680.0,"duration":512.0,"pitch":54,"accidental":0,"velocity":100,"art":[],"hand":">","color":null,"colorMidiNote":null,"blackNoteDirection":null,"stemLengthMm":null,"stopSignColor":null},{"id":110,"time":7680.0,"duration":512.0,"pitch":42,"accidental":0,"velocity":100,"art":[],"hand":"<","color":null,"colorMidiNote":null,"blackNoteDirection":null,"stemLengthMm":null,"stopSignColor":null},{"id":114,"time":8192.0,"duration":256.0,"pitch":61,"accidental":0,"velocity":100,"art":[],"hand":">","color":null,"colorMidiNote":null,"blackNoteDirection":null,"stemLengthMm":null,"stopSignColor":null},{"id":143,"time":8192.0,"duration":128.0,"pitch":42,"accidental":0,"velocity":100,"art":[],"hand":"<","color":null,"colorMidiNote":null,"blackNoteDirection":null,"stemLengthMm":null,"stopSignColor":null},{"id":144,"time":8192.0,"duration":128.0,"pitch":46,"accidental":0,"velocity":100,"art":[],"hand":"<","color":null,"colorMidiNote":null,"blackNoteDirection":null,"stemLengthMm":null,"stopSignColor":null},{"id":145,"time":8320.0,"duration":256.0,"pitch":44,"accidental":0,"velocity":100,"art":[],"hand":"<","color":null,"colorMidiNote":null,"blackNoteDirection":null,"stemLengthMm":null,"stopSignColor":null},{"id":146,"time":8320.0,"duration":256.0,"pitch":47,"accidental":0,"velocity":100,"art":[],"hand":"<","color":null,"colorMidiNote":null,"blackNoteDirection":null,"stemLengthMm":null,"stopSignColor":null},{"id":115,"time":8448.0,"duration":256.0,"pitch":58,"accidental":0,"velocity":100,"art":[],"hand":">","color":null,"colorMidiNote":null,"blackNoteDirection":null,"stemLengthMm":null,"stopSignColor":null},{"id":147,"time":8576.0,"duration":128.0,"pitch":46,"accidental":0,"velocity":100,"art":[],"hand":"<","color":null,"colorMidiNote":null,"blackNoteDirection":null,"stemLengthMm":null,"stopSignColor":null},{"id":148,"time":8576.0,"duration":128.0,"pitch":49,"accidental":0,"velocity":100,"art":[],"hand":"<","color":null,"colorMidiNote":null,"blackNoteDirection":null,"stemLengthMm":null,"stopSignColor":null},{"id":116,"time":8704.0,"duration":128.0,"pitch":54,"accidental":0,"velocity":100,"art":[],"hand":">","color":null,"colorMidiNote":null,"blackNoteDirection":null,"stemLengthMm":null,"stopSignColor":null},{"id":149,"time":8704.0,"duration":128.0,"pitch":51,"accidental":0,"velocity":100,"art":[],"hand":"<","color":null,"colorMidiNote":null,"blackNoteDirection":null,"stemLengthMm":null,"stopSignColor":null},{"id":117,"time":8832.0,"duration":128.0,"pitch":53,"accidental":0,"velocity":100,"art":[],"hand":">","color":null,"colorMidiNote":null,"blackNoteDirection":null,"stemLengthMm":null,"stopSignColor":null},{"id":150,"time":8832.0,"duration":128.0,"pitch":46,"accidental":0,"velocity":100,"art":[],"hand":"<","color":null,"colorMidiNote":null,"blackNoteDirection":null,"stemLengthMm":null,"stopSignColor":null},{"id":151,"time":8832.0,"duration":128.0,"pitch":49,"accidental":0,"velocity":100,"art":[],"hand":"<","color":null,"colorMidiNote":null,"blackNoteDirection":null,"stemLengthMm":null,"stopSignColor":null},{"id":118,"time":8960.0,"duration":256.0,"pitch":56,"accidental":0,"velocity":100,"art":[],"hand":">","color":null,"colorMidiNote":null,"blackNoteDirection":null,"stemLengthMm":null,"stopSignColor":null},{"id":152,"time":8960.0,"duration":256.0,"pitch":47,"accidental":0,"velocity":100,"art":[],"hand":"<","color":null,"colorMidiNote":null,"blackNoteDirection":null,"stemLengthMm":null,"stopSignColor":null},{"id":153,"time":8960.0,"duration":128.0,"pitch":39,"accidental":0,"velocity":100,"art":[],"hand":"<","color":null,"colorMidiNote":null,"blackNoteDirection":null,"stemLengthMm":null,"stopSignColor":null},{"id":154,"time":9088.0,"duration":128.0,"pitch":35,"accidental":0,"velocity":100,"art":[],"hand":"<","color":null,"colorMidiNote":null,"blackNoteDirection":null,"stemLengthMm":null,"stopSignColor":null},{"id":119,"time":9216.0,"duration":128.0,"pitch":54,"accidental":0,"velocity":100,"art":[],"hand":">","color":null,"colorMidiNote":null,"blackNoteDirection":null,"stemLengthMm":null,"stopSignColor":null},{"id":155,"time":9216.0,"duration":128.0,"pitch":49,"accidental":0,"velocity":100,"art":[],"hand":"<","color":null,"colorMidiNote":null,"blackNoteDirection":null,"stemLengthMm":null,"stopSignColor":null},{"id":164,"time":9216.0,"duration":128.0,"pitch":53,"accidental":0,"velocity":100,"art":[],"hand":">","color":null,"colorMidiNote":null,"blackNoteDirection":null,"stemLengthMm":null,"stopSignColor":null},{"id":120,"time":9344.0,"duration":128.0,"pitch":54,"accidental":0,"velocity":100,"art":[],"hand":">","color":null,"colorMidiNote":null,"blackNoteDirection":null,"stemLengthMm":null,"stopSignColor":null},{"id":156,"time":9344.0,"duration":128.0,"pitch":46,"accidental":0,"velocity":100,"art":[],"hand":"<","color":null,"colorMidiNote":null,"blackNoteDirection":null,"stemLengthMm":null,"stopSignColor":null},{"id":165,"time":9344.0,"duration":128.0,"pitch":51,"accidental":0,"velocity":100,"art":[],"hand":">","color":null,"colorMidiNote":null,"blackNoteDirection":null,"stemLengthMm":null,"stopSignColor":null},{"id":121,"time":9472.0,"duration":128.0,"pitch":59,"accidental":0,"velocity":100,"art":[],"hand":">","color":null,"colorMidiNote":null,"blackNoteDirection":null,"stemLengthMm":null,"stopSignColor":null},{"id":157,"time":9472.0,"duration":128.0,"pitch":44,"accidental":0,"velocity":100,"art":[],"hand":"<","color":null,"colorMidiNote":null,"blackNoteDirection":null,"stemLengthMm":null,"stopSignColor":null},{"id":166,"time":9472.0,"duration":128.0,"pitch":58,"accidental":0,"velocity":100,"art":[],"hand":">","color":null,"colorMidiNote":null,"blackNoteDirection":null,"stemLengthMm":null,"stopSignColor":null},{"id":167,"time":9472.0,"duration":128.0,"pitch":54,"accidental":0,"velocity":100,"art":[],"hand":">","color":null,"colorMidiNote":null,"blackNoteDirection":null,"stemLengthMm":null,"stopSignColor":null},{"id":122,"time":9600.0,"duration":128.0,"pitch":59,"accidental":0,"velocity":100,"art":[],"hand":">","color":null,"colorMidiNote":null,"blackNoteDirection":null,"stemLengthMm":null,"stopSignColor":null},{"id":158,"time":9600.0,"duration":128.0,"pitch":49,"accidental":0,"velocity":100,"art":[],"hand":"<","color":null,"colorMidiNote":null,"blackNoteDirection":null,"stemLengthMm":null,"stopSignColor":null},{"id":168,"time":9600.0,"duration":128.0,"pitch":56,"accidental":0,"velocity":100,"art":[],"hand":">","color":null,"colorMidiNote":null,"blackNoteDirection":null,"stemLengthMm":null,"stopSignColor":null},{"id":169,"time":9600.0,"duration":128.0,"pitch":52,"accidental":0,"velocity":100,"art":[],"hand":">","color":null,"colorMidiNote":null,"blackNoteDirection":null,"stemLengthMm":null,"stopSignColor":null},{"id":123,"time":9728.0,"duration":256.0,"pitch":58,"accidental":0,"velocity":100,"art":[],"hand":">","color":null,"colorMidiNote":null,"blackNoteDirection":null,"stemLengthMm":null,"stopSignColor":null},{"id":159,"time":9728.0,"duration":256.0,"pitch":46,"accidental":0,"velocity":100,"art":[],"hand":"<","color":null,"colorMidiNote":null,"blackNoteDirection":null,"stemLengthMm":null,"stopSignColor":null},{"id":170,"time":9728.0,"duration":256.0,"pitch":54,"accidental":0,"velocity":100,"art":[],"hand":">","color":null,"colorMidiNote":null,"blackNoteDirection":null,"stemLengthMm":null,"stopSignColor":null},{"id":172,"time":9728.0,"duration":256.0,"pitch":51,"accidental":0,"velocity":100,"art":[],"hand":">","color":null,"colorMidiNote":null,"blackNoteDirection":null,"stemLengthMm":null,"stopSignColor":null},{"id":160,"time":9856.0,"duration":128.0,"pitch":39,"accidental":0,"velocity":100,"art":[],"hand":"<","color":null,"colorMidiNote":null,"blackNoteDirection":null,"stemLengthMm":null,"stopSignColor":null},{"id":124,"time":9984.0,"duration":256.0,"pitch":56,"accidental":0,"velocity":100,"art":[],"hand":">","color":null,"colorMidiNote":null,"blackNoteDirection":null,"stemLengthMm":null,"stopSignColor":null},{"id":161,"time":9984.0,"duration":256.0,"pitch":40,"accidental":0,"velocity":100,"art":[],"hand":"<","color":null,"colorMidiNote":null,"blackNoteDirection":null,"stemLengthMm":null,"stopSignColor":null},{"id":174,"time":9984.0,"duration":128.0,"pitch":51,"accidental":0,"velocity":100,"art":[],"hand":">","color":null,"colorMidiNote":null,"blackNoteDirection":null,"stemLengthMm":null,"stopSignColor":null},{"id":176,"time":9984.0,"duration":256.0,"pitch":47,"accidental":0,"velocity":100,"art":[],"hand":"<","color":null,"colorMidiNote":null,"blackNoteDirection":null,"stemLengthMm":null,"stopSignColor":null},{"id":177,"time":9984.0,"duration":256.0,"pitch":52,"accidental":0,"velocity":100,"art":[],"hand":">","color":null,"colorMidiNote":null,"blackNoteDirection":null,"stemLengthMm":null,"stopSignColor":null},{"id":175,"time":10112.0,"duration":128.0,"pitch":49,"accidental":0,"velocity":100,"art":[],"hand":">","color":null,"colorMidiNote":null,"blackNoteDirection":null,"stemLengthMm":null,"stopSignColor":null},{"id":125,"time":10240.0,"duration":128.0,"pitch":61,"accidental":0,"velocity":100,"art":[],"hand":">","color":null,"colorMidiNote":null,"blackNoteDirection":null,"stemLengthMm":null,"stopSignColor":null},{"id":178,"time":10240.0,"duration":128.0,"pitch":52,"accidental":0,"velocity":100,"art":[],"hand":">","color":null,"colorMidiNote":null,"blackNoteDirection":null,"stemLengthMm":null,"stopSignColor":null},{"id":179,"time":10240.0,"duration":128.0,"pitch":56,"accidental":0,"velocity":100,"art":[],"hand":">","color":null,"colorMidiNote":null,"blackNoteDirection":null,"stemLengthMm":null,"stopSignColor":null},{"id":190,"time":10240.0,"duration":128.0,"pitch":44,"accidental":0,"velocity":100,"art":[],"hand":"<","color":null,"colorMidiNote":null,"blackNoteDirection":null,"stemLengthMm":null,"stopSignColor":null},{"id":191,"time":10240.0,"duration":128.0,"pitch":49,"accidental":0,"velocity":100,"art":[],"hand":"<","color":null,"colorMidiNote":null,"blackNoteDirection":null,"stemLengthMm":null,"stopSignColor":null},{"id":126,"time":10368.0,"duration":128.0,"pitch":61,"accidental":0,"velocity":100,"art":[],"hand":">","color":null,"colorMidiNote":null,"blackNoteDirection":null,"stemLengthMm":null,"stopSignColor":null},{"id":180,"time":10368.0,"duration":128.0,"pitch":54,"accidental":0,"velocity":100,"art":[],"hand":">","color":null,"colorMidiNote":null,"blackNoteDirection":null,"stemLengthMm":null,"stopSignColor":null},{"id":181,"time":10368.0,"duration":128.0,"pitch":58,"accidental":0,"velocity":100,"art":[],"hand":">","color":null,"colorMidiNote":null,"blackNoteDirection":null,"stemLengthMm":null,"stopSignColor":null},{"id":193,"time":10368.0,"duration":128.0,"pitch":46,"accidental":0,"velocity":100,"art":[],"hand":"<","color":null,"colorMidiNote":null,"blackNoteDirection":null,"stemLengthMm":null,"stopSignColor":null},{"id":194,"time":10368.0,"duration":128.0,"pitch":51,"accidental":0,"velocity":100,"art":[],"hand":"<","color":null,"colorMidiNote":null,"blackNoteDirection":null,"stemLengthMm":null,"stopSignColor":null},{"id":127,"time":10496.0,"duration":128.0,"pitch":66,"accidental":0,"velocity":100,"art":[],"hand":">","color":null,"colorMidiNote":null,"blackNoteDirection":null,"stemLengthMm":null,"stopSignColor":null},{"id":182,"time":10496.0,"duration":128.0,"pitch":61,"accidental":0,"velocity":100,"art":[],"hand":">","color":null,"colorMidiNote":null,"blackNoteDirection":null,"stemLengthMm":null,"stopSignColor":null},{"id":183,"time":10496.0,"duration":128.0,"pitch":56,"accidental":0,"velocity":100,"art":[],"hand":">","color":null,"colorMidiNote":null,"blackNoteDirection":null,"stemLengthMm":null,"stopSignColor":null},{"id":195,"time":10496.0,"duration":128.0,"pitch":47,"accidental":0,"velocity":100,"art":[],"hand":"<","color":null,"colorMidiNote":null,"blackNoteDirection":null,"stemLengthMm":null,"stopSignColor":null},{"id":196,"time":10496.0,"duration":128.0,"pitch":52,"accidental":0,"velocity":100,"art":[],"hand":"<","color":null,"colorMidiNote":null,"blackNoteDirection":null,"stemLengthMm":null,"stopSignColor":null},{"id":128,"time":10624.0,"duration":128.0,"pitch":66,"accidental":0,"velocity":100,"art":[],"hand":">","color":null,"colorMidiNote":null,"blackNoteDirection":null,"stemLengthMm":null,"stopSignColor":null},{"id":184,"time":10624.0,"duration":128.0,"pitch":56,"accidental":0,"velocity":100,"art":[],"hand":">","color":null,"colorMidiNote":null,"blackNoteDirection":null,"stemLengthMm":null,"stopSignColor":null},{"id":185,"time":10624.0,"duration":128.0,"pitch":59,"accidental":0,"velocity":100,"art":[],"hand":">","color":null,"colorMidiNote":null,"blackNoteDirection":null,"stemLengthMm":null,"stopSignColor":null},{"id":197,"time":10624.0,"duration":128.0,"pitch":49,"accidental":0,"velocity":100,"art":[],"hand":"<","color":null,"colorMidiNote":null,"blackNoteDirection":null,"stemLengthMm":null,"stopSignColor":null},{"id":198,"time":10624.0,"duration":128.0,"pitch":54,"accidental":0,"velocity":100,"art":[],"hand":"<","color":null,"colorMidiNote":null,"blackNoteDirection":null,"stemLengthMm":null,"stopSignColor":null},{"id":129,"time":10752.0,"duration":256.0,"pitch":65,"accidental":0,"velocity":100,"art":[],"hand":">","color":null,"colorMidiNote":null,"blackNoteDirection":null,"stemLengthMm":null,"stopSignColor":null},{"id":186,"time":10752.0,"duration":256.0,"pitch":56,"accidental":0,"velocity":100,"art":[],"hand":">","color":null,"colorMidiNote":null,"blackNoteDirection":null,"stemLengthMm":null,"stopSignColor":null},{"id":187,"time":10752.0,"duration":128.0,"pitch":59,"accidental":0,"velocity":100,"art":[],"hand":">","color":null,"colorMidiNote":null,"blackNoteDirection":null,"stemLengthMm":null,"stopSignColor":null},{"id":199,"time":10752.0,"duration":128.0,"pitch":54,"accidental":0,"velocity":100,"art":[],"hand":"<","color":null,"colorMidiNote":null,"blackNoteDirection":null,"stemLengthMm":null,"stopSignColor":null},{"id":200,"time":10752.0,"duration":384.0,"pitch":51,"accidental":0,"velocity":100,"art":[],"hand":"<","color":null,"colorMidiNote":null,"blackNoteDirection":null,"stemLengthMm":null,"stopSignColor":null},{"id":188,"time":10880.0,"duration":384.0,"pitch":58,"accidental":0,"velocity":100,"art":[],"hand":">","color":null,"colorMidiNote":null,"blackNoteDirection":null,"stemLengthMm":null,"stopSignColor":null},{"id":201,"time":10880.0,"duration":256.0,"pitch":53,"accidental":0,"velocity":100,"art":[],"hand":"<","color":null,"colorMidiNote":null,"blackNoteDirection":null,"stemLengthMm":null,"stopSignColor":null},{"id":130,"time":11008.0,"duration":256.0,"pitch":63,"accidental":0,"velocity":100,"art":[],"hand":">","color":null,"colorMidiNote":null,"blackNoteDirection":null,"stemLengthMm":null,"stopSignColor":null},{"id":189,"time":11008.0,"duration":256.0,"pitch":54,"accidental":0,"velocity":100,"art":[],"hand":">","color":null,"colorMidiNote":null,"blackNoteDirection":null,"stemLengthMm":null,"stopSignColor":null},{"id":202,"time":11136.0,"duration":128.0,"pitch":51,"accidental":0,"velocity":100,"art":[],"hand":"<","color":null,"colorMidiNote":null,"blackNoteDirection":null,"stemLengthMm":null,"stopSignColor":null},{"id":131,"time":11264.0,"duration":256.0,"pitch":63,"accidental":0,"velocity":100,"art":[],"hand":">","color":null,"colorMidiNote":null,"blackNoteDirection":null,"stemLengthMm":null,"stopSignColor":null},{"id":203,"time":11264.0,"duration":256.0,"pitch":47,"accidental":0,"velocity":100,"art":[],"hand":"<","color":null,"colorMidiNote":null,"blackNoteDirection":null,"stemLengthMm":null,"stopSignColor":null},{"id":207,"time":11264.0,"duration":128.0,"pitch":54,"accidental":0,"velocity":100,"art":[],"hand":">","color":null,"colorMidiNote":null,"blackNoteDirection":null,"stemLengthMm":null,"stopSignColor":null},{"id":208,"time":11392.0,"duration":256.0,"pitch":58,"accidental":0,"velocity":100,"art":[],"hand":">","color":null,"colorMidiNote":null,"blackNoteDirection":null,"stemLengthMm":null,"stopSignColor":null},{"id":132,"time":11520.0,"duration":256.0,"pitch":65,"accidental":0,"velocity":100,"art":[],"hand":">","color":null,"colorMidiNote":null,"blackNoteDirection":null,"stemLengthMm":null,"stopSignColor":null},{"id":204,"time":11520.0,"duration":256.0,"pitch":49,"accidental":0,"velocity":100,"art":[],"hand":"<","color":null,"colorMidiNote":null,"blackNoteDirection":null,"stemLengthMm":null,"stopSignColor":null},{"id":209,"time":11648.0,"duration":128.0,"pitch":56,"accidental":0,"velocity":100,"art":[],"hand":">","color":null,"colorMidiNote":null,"blackNoteDirection":null,"stemLengthMm":null,"stopSignColor":null},{"id":133,"time":11776.0,"duration":256.0,"pitch":66,"accidental":0,"velocity":100,"art":[],"hand":">","color":null,"colorMidiNote":null,"blackNoteDirection":null,"stemLengthMm":null,"stopSignColor":null},{"id":205,"time":11776.0,"duration":384.0,"pitch":51,"accidental":0,"velocity":100,"art":[],"hand":"<","color":null,"colorMidiNote":null,"blackNoteDirection":null,"stemLengthMm":null,"stopSignColor":null},{"id":210,"time":11776.0,"duration":128.0,"pitch":54,"accidental":0,"velocity":100,"art":[],"hand":">","color":null,"colorMidiNote":null,"blackNoteDirection":null,"stemLengthMm":null,"stopSignColor":null},{"id":211,"time":11904.0,"duration":128.0,"pitch":58,"accidental":0,"velocity":100,"art":[],"hand":">","color":null,"colorMidiNote":null,"blackNoteDirection":null,"stemLengthMm":null,"stopSignColor":null},{"id":134,"time":12032.0,"duration":256.0,"pitch":63,"accidental":0,"velocity":100,"art":[],"hand":">","color":null,"colorMidiNote":null,"blackNoteDirection":null,"stemLengthMm":null,"stopSignColor":null},{"id":212,"time":12032.0,"duration":256.0,"pitch":54,"accidental":0,"velocity":100,"art":[],"hand":">","color":null,"colorMidiNote":null,"blackNoteDirection":null,"stemLengthMm":null,"stopSignColor":null},{"id":206,"time":12160.0,"duration":128.0,"pitch":46,"accidental":0,"velocity":100,"art":[],"hand":"<","color":null,"colorMidiNote":null,"blackNoteDirection":null,"stemLengthMm":null,"stopSignColor":null},{"id":135,"time":12288.0,"duration":128.0,"pitch":59,"accidental":0,"velocity":100,"art":[],"hand":">","color":null,"colorMidiNote":null,"blackNoteDirection":null,"stemLengthMm":null,"stopSignColor":null},{"id":213,"time":12288.0,"duration":128.0,"pitch":58,"accidental":0,"velocity":100,"art":[],"hand":">","color":null,"colorMidiNote":null,"blackNoteDirection":null,"stemLengthMm":null,"stopSignColor":null},{"id":214,"time":12288.0,"duration":128.0,"pitch":54,"accidental":0,"velocity":100,"art":[],"hand":">","color":null,"colorMidiNote":null,"blackNoteDirection":null,"stemLengthMm":null,"stopSignColor":null},{"id":227,"time":12288.0,"duration":256.0,"pitch":44,"accidental":0,"velocity":100,"art":[],"hand":"<","color":null,"colorMidiNote":null,"blackNoteDirection":null,"stemLengthMm":null,"stopSignColor":null},{"id":136,"time":12416.0,"duration":128.0,"pitch":59,"accidental":0,"velocity":100,"art":[],"hand":">","color":null,"colorMidiNote":null,"blackNoteDirection":null,"stemLengthMm":null,"stopSignColor":null},{"id":215,"time":12416.0,"duration":128.0,"pitch":56,"accidental":0,"velocity":100,"art":[],"hand":">","color":null,"colorMidiNote":null,"blackNoteDirection":null,"stemLengthMm":null,"stopSignColor":null},{"id":216,"time":12416.0,"duration":128.0,"pitch":51,"accidental":0,"velocity":100,"art":[],"hand":">","color":null,"colorMidiNote":null,"blackNoteDirection":null,"stemLengthMm":null,"stopSignColor":null},{"id":137,"time":12544.0,"duration":128.0,"pitch":61,"accidental":0,"velocity":100,"art":[],"hand":">","color":null,"colorMidiNote":null,"blackNoteDirection":null,"stemLengthMm":null,"stopSignColor":null},{"id":217,"time":12544.0,"duration":128.0,"pitch":54,"accidental":0,"velocity":100,"art":[],"hand":">","color":null,"colorMidiNote":null,"blackNoteDirection":null,"stemLengthMm":null,"stopSignColor":null},{"id":219,"time":12544.0,"duration":128.0,"pitch":56,"accidental":0,"velocity":100,"art":[],"hand":">","color":null,"colorMidiNote":null,"blackNoteDirection":null,"stemLengthMm":null,"stopSignColor":null},{"id":228,"time":12544.0,"duration":256.0,"pitch":49,"accidental":0,"velocity":100,"art":[],"hand":"<","color":null,"colorMidiNote":null,"blackNoteDirection":null,"stemLengthMm":null,"stopSignColor":null},{"id":138,"time":12672.0,"duration":128.0,"pitch":61,"accidental":0,"velocity":100,"art":[],"hand":">","color":null,"colorMidiNote":null,"blackNoteDirection":null,"stemLengthMm":null,"stopSignColor":null},{"id":218,"time":12672.0,"duration":128.0,"pitch":53,"accidental":0,"velocity":100,"art":[],"hand":">","color":null,"colorMidiNote":null,"blackNoteDirection":null,"stemLengthMm":null,"stopSignColor":null},{"id":220,"time":12672.0,"duration":128.0,"pitch":56,"accidental":0,"velocity":100,"art":[],"hand":">","color":null,"colorMidiNote":null,"blackNoteDirection":null,"stemLengthMm":null,"stopSignColor":null},{"id":139,"time":12800.0,"duration":512.0,"pitch":58,"accidental":0,"velocity":100,"art":[],"hand":">","color":null,"colorMidiNote":null,"blackNoteDirection":null,"stemLengthMm":null,"stopSignColor":null},{"id":221,"time":12800.0,"duration":128.0,"pitch":56,"accidental":0,"velocity":100,"art":[],"hand":">","color":null,"colorMidiNote":null,"blackNoteDirection":null,"stemLengthMm":null,"stopSignColor":null},{"id":223,"time":12800.0,"duration":256.0,"pitch":49,"accidental":0,"velocity":100,"art":[],"hand":">","color":null,"colorMidiNote":null,"blackNoteDirection":null,"stemLengthMm":null,"stopSignColor":null},{"id":229,"time":12800.0,"duration":256.0,"pitch":42,"accidental":0,"velocity":100,"art":[],"hand":"<","color":null,"colorMidiNote":null,"blackNoteDirection":null,"stemLengthMm":null,"stopSignColor":null},{"id":222,"time":12928.0,"duration":128.0,"pitch":54,"accidental":0,"velocity":100,"art":[],"hand":">","color":null,"colorMidiNote":null,"blackNoteDirection":null,"stemLengthMm":null,"stopSignColor":null},{"id":224,"time":13056.0,"duration":128.0,"pitch":53,"accidental":0,"velocity":100,"art":[],"hand":">","color":null,"colorMidiNote":null,"blackNoteDirection":null,"stemLengthMm":null,"stopSignColor":null},{"id":225,"time":13056.0,"duration":128.0,"pitch":49,"accidental":0,"velocity":100,"art":[],"hand":">","color":null,"colorMidiNote":null,"blackNoteDirection":null,"stemLengthMm":null,"stopSignColor":null},{"id":230,"time":13056.0,"duration":128.0,"pitch":46,"accidental":0,"velocity":100,"art":[],"hand":"<","color":null,"colorMidiNote":null,"blackNoteDirection":null,"stemLengthMm":null,"stopSignColor":null},{"id":226,"time":13184.0,"duration":128.0,"pitch":49,"accidental":0,"velocity":100,"art":[],"hand":">","color":null,"colorMidiNote":null,"blackNoteDirection":null,"stemLengthMm":null,"stopSignColor":null},{"id":231,"time":13184.0,"duration":128.0,"pitch":41,"accidental":0,"velocity":100,"art":[],"hand":"<","color":null,"colorMidiNote":null,"blackNoteDirection":null,"stemLengthMm":null,"stopSignColor":null},{"id":232,"time":13184.0,"duration":128.0,"pitch":46,"accidental":0,"velocity":100,"art":[],"hand":"<","color":null,"colorMidiNote":null,"blackNoteDirection":null,"stemLengthMm":null,"stopSignColor":null},{"id":141,"time":13312.0,"duration":128.0,"pitch":56,"accidental":0,"velocity":100,"art":[],"hand":">","color":null,"colorMidiNote":null,"blackNoteDirection":null,"stemLengthMm":null,"stopSignColor":null},{"id":233,"time":13312.0,"duration":128.0,"pitch":41,"accidental":0,"velocity":100,"art":[],"hand":"<","color":null,"colorMidiNote":null,"blackNoteDirection":null,"stemLengthMm":null,"stopSignColor":null},{"id":250,"time":13312.0,"duration":128.0,"pitch":51,"accidental":0,"velocity":100,"art":[],"hand":">","color":null,"colorMidiNote":null,"blackNoteDirection":null,"stemLengthMm":null,"stopSignColor":null},{"id":251,"time":13312.0,"duration":128.0,"pitch":47,"accidental":0,"velocity":100,"art":[],"hand":">","color":null,"colorMidiNote":null,"blackNoteDirection":null,"stemLengthMm":null,"stopSignColor":null},{"id":142,"time":13440.0,"duration":128.0,"pitch":56,"accidental":0,"velocity":100,"art":[],"hand":">","color":null,"colorMidiNote":null,"blackNoteDirection":null,"stemLengthMm":null,"stopSignColor":null},{"id":234,"time":13440.0,"duration":128.0,"pitch":39,"accidental":0,"velocity":100,"art":[],"hand":"<","color":null,"colorMidiNote":null,"blackNoteDirection":null,"stemLengthMm":null,"stopSignColor":null},{"id":252,"time":13440.0,"duration":128.0,"pitch":47,"accidental":0,"velocity":100,"art":[],"hand":">","color":null,"colorMidiNote":null,"blackNoteDirection":null,"stemLengthMm":null,"stopSignColor":null},{"id":253,"time":13440.0,"duration":128.0,"pitch":53,"accidental":0,"velocity":100,"art":[],"hand":">","color":null,"colorMidiNote":null,"blackNoteDirection":null,"stemLengthMm":null,"stopSignColor":null},{"id":235,"time":13568.0,"duration":128.0,"pitch":38,"accidental":0,"velocity":100,"art":[],"hand":"<","color":null,"colorMidiNote":null,"blackNoteDirection":null,"stemLengthMm":null,"stopSignColor":null},{"id":254,"time":13568.0,"duration":128.0,"pitch":53,"accidental":0,"velocity":100,"art":[],"hand":">","color":null,"colorMidiNote":null,"blackNoteDirection":null,"stemLengthMm":null,"stopSignColor":null},{"id":255,"time":13568.0,"duration":128.0,"pitch":56,"accidental":0,"velocity":100,"art":[],"hand":">","color":null,"colorMidiNote":null,"blackNoteDirection":null,"stemLengthMm":null,"stopSignColor":null},{"id":256,"time":13568.0,"duration":128.0,"pitch":61,"accidental":0,"velocity":100,"art":[],"hand":">","color":null,"colorMidiNote":null,"blackNoteDirection":null,"stemLengthMm":null,"stopSignColor":null},{"id":236,"time":13696.0,"duration":128.0,"pitch":34,"accidental":0,"velocity":100,"art":[],"hand":"<","color":null,"colorMidiNote":null,"blackNoteDirection":null,"stemLengthMm":null,"stopSignColor":null},{"id":257,"time":13696.0,"duration":128.0,"pitch":61,"accidental":0,"velocity":100,"art":[],"hand":">","color":null,"colorMidiNote":null,"blackNoteDirection":null,"stemLengthMm":null,"stopSignColor":null},{"id":258,"time":13696.0,"duration":128.0,"pitch":56,"accidental":0,"velocity":100,"art":[],"hand":">","color":null,"colorMidiNote":null,"blackNoteDirection":null,"stemLengthMm":null,"stopSignColor":null},{"id":259,"time":13696.0,"duration":128.0,"pitch":50,"accidental":0,"velocity":100,"art":[],"hand":">","color":null,"colorMidiNote":null,"blackNoteDirection":null,"stemLengthMm":null,"stopSignColor":null},{"id":237,"time":13824.0,"duration":256.0,"pitch":39,"accidental":0,"velocity":100,"art":[],"hand":"<","color":null,"colorMidiNote":null,"blackNoteDirection":null,"stemLengthMm":null,"stopSignColor":null},{"id":260,"time":13824.0,"duration":256.0,"pitch":58,"accidental":0,"velocity":100,"art":[],"hand":">","color":null,"colorMidiNote":null,"blackNoteDirection":null,"stemLengthMm":null,"stopSignColor":null},{"id":261,"time":13824.0,"duration":128.0,"pitch":56,"accidental":0,"velocity":100,"art":[],"hand":">","color":null,"colorMidiNote":null,"blackNoteDirection":null,"stemLengthMm":null,"stopSignColor":null},{"id":262,"time":13824.0,"duration":256.0,"pitch":49,"accidental":0,"velocity":100,"art":[],"hand":">","color":null,"colorMidiNote":null,"blackNoteDirection":null,"stemLengthMm":null,"stopSignColor":null},{"id":263,"time":13952.0,"duration":128.0,"pitch":55,"accidental":0,"velocity":100,"art":[],"hand":">","color":null,"colorMidiNote":null,"blackNoteDirection":null,"stemLengthMm":null,"stopSignColor":null},{"id":238,"time":14080.0,"duration":128.0,"pitch":41,"accidental":0,"velocity":100,"art":[],"hand":"<","color":null,"colorMidiNote":null,"blackNoteDirection":null,"stemLengthMm":null,"stopSignColor":null},{"id":264,"time":14080.0,"duration":128.0,"pitch":50,"accidental":0,"velocity":100,"art":[],"hand":">","color":null,"colorMidiNote":null,"blackNoteDirection":null,"stemLengthMm":null,"stopSignColor":null},{"id":265,"time":14080.0,"duration":128.0,"pitch":56,"accidental":0,"velocity":100,"art":[],"hand":">","color":null,"colorMidiNote":null,"blackNoteDirection":null,"stemLengthMm":null,"stopSignColor":null},{"id":266,"time":14080.0,"duration":128.0,"pitch":59,"accidental":0,"velocity":100,"art":[],"hand":">","color":null,"colorMidiNote":null,"blackNoteDirection":null,"stemLengthMm":null,"stopSignColor":null},{"id":239,"time":14208.0,"duration":128.0,"pitch":43,"accidental":0,"velocity":100,"art":[],"hand":"<","color":null,"colorMidiNote":null,"blackNoteDirection":null,"stemLengthMm":null,"stopSignColor":null},{"id":267,"time":14208.0,"duration":128.0,"pitch":52,"accidental":0,"velocity":100,"art":[],"hand":">","color":null,"colorMidiNote":null,"blackNoteDirection":null,"stemLengthMm":null,"stopSignColor":null},{"id":268,"time":14208.0,"duration":128.0,"pitch":58,"accidental":0,"velocity":100,"art":[],"hand":">","color":null,"colorMidiNote":null,"blackNoteDirection":null,"stemLengthMm":null,"stopSignColor":null},{"id":270,"time":14208.0,"duration":128.0,"pitch":61,"accidental":0,"velocity":100,"art":[],"hand":">","color":null,"colorMidiNote":null,"blackNoteDirection":null,"stemLengthMm":null,"stopSignColor":null},{"id":240,"time":14336.0,"duration":256.0,"pitch":44,"accidental":0,"velocity":100,"art":[],"hand":"<","color":null,"colorMidiNote":null,"blackNoteDirection":null,"stemLengthMm":null,"stopSignColor":null},{"id":271,"time":14336.0,"duration":128.0,"pitch":63,"accidental":0,"velocity":100,"art":[],"hand":">","color":null,"colorMidiNote":null,"blackNoteDirection":null,"stemLengthMm":null,"stopSignColor":null},{"id":272,"time":14336.0,"duration":128.0,"pitch":59,"accidental":0,"velocity":100,"art":[],"hand":">","color":null,"colorMidiNote":null,"blackNoteDirection":null,"stemLengthMm":null,"stopSignColor":null},{"id":273,"time":14336.0,"duration":128.0,"pitch":56,"accidental":0,"velocity":100,"art":[],"hand":">","color":null,"colorMidiNote":null,"blackNoteDirection":null,"stemLengthMm":null,"stopSignColor":null},{"id":274,"time":14464.0,"duration":128.0,"pitch":59,"accidental":0,"velocity":100,"art":[],"hand":">","color":null,"colorMidiNote":null,"blackNoteDirection":null,"stemLengthMm":null,"stopSignColor":null},{"id":275,"time":14464.0,"duration":128.0,"pitch":56,"accidental":0,"velocity":100,"art":[],"hand":">","color":null,"colorMidiNote":null,"blackNoteDirection":null,"stemLengthMm":null,"stopSignColor":null},{"id":276,"time":14464.0,"duration":128.0,"pitch":51,"accidental":0,"velocity":100,"art":[],"hand":">","color":null,"colorMidiNote":null,"blackNoteDirection":null,"stemLengthMm":null,"stopSignColor":null},{"id":241,"time":14592.0,"duration":128.0,"pitch":49,"accidental":0,"velocity":100,"art":[],"hand":"<","color":null,"colorMidiNote":null,"blackNoteDirection":null,"stemLengthMm":null,"stopSignColor":null},{"id":277,"time":14592.0,"duration":128.0,"pitch":56,"accidental":0,"velocity":100,"art":[],"hand":">","color":null,"colorMidiNote":null,"blackNoteDirection":null,"stemLengthMm":null,"stopSignColor":null},{"id":278,"time":14592.0,"duration":128.0,"pitch":54,"accidental":0,"velocity":100,"art":[],"hand":">","color":null,"colorMidiNote":null,"blackNoteDirection":null,"stemLengthMm":null,"stopSignColor":null},{"id":242,"time":14720.0,"duration":128.0,"pitch":47,"accidental":0,"velocity":100,"art":[],"hand":"<","color":null,"colorMidiNote":null,"blackNoteDirection":null,"stemLengthMm":null,"stopSignColor":null},{"id":243,"time":14720.0,"duration":128.0,"pitch":37,"accidental":0,"velocity":100,"art":[],"hand":"<","color":null,"colorMidiNote":null,"blackNoteDirection":null,"stemLengthMm":null,"stopSignColor":null},{"id":279,"time":14720.0,"duration":128.0,"pitch":53,"accidental":0,"velocity":100,"art":[],"hand":">","color":null,"colorMidiNote":null,"blackNoteDirection":null,"stemLengthMm":null,"stopSignColor":null},{"id":280,"time":14720.0,"duration":128.0,"pitch":61,"accidental":0,"velocity":100,"art":[],"hand":">","color":null,"colorMidiNote":null,"blackNoteDirection":null,"stemLengthMm":null,"stopSignColor":null},{"id":244,"time":14848.0,"duration":256.0,"pitch":30,"accidental":0,"velocity":100,"art":[],"hand":"<","color":null,"colorMidiNote":null,"blackNoteDirection":null,"stemLengthMm":null,"stopSignColor":null},{"id":245,"time":14848.0,"duration":256.0,"pitch":37,"accidental":0,"velocity":100,"art":[],"hand":"<","color":null,"colorMidiNote":null,"blackNoteDirection":null,"stemLengthMm":null,"stopSignColor":null},{"id":281,"time":14848.0,"duration":256.0,"pitch":46,"accidental":0,"velocity":100,"art":[],"hand":">","color":null,"colorMidiNote":null,"blackNoteDirection":null,"stemLengthMm":null,"stopSignColor":null},{"id":282,"time":14848.0,"duration":256.0,"pitch":54,"accidental":0,"velocity":100,"art":[],"hand":">","color":null,"colorMidiNote":null,"blackNoteDirection":null,"stemLengthMm":null,"stopSignColor":null},{"id":246,"time":15104.0,"duration":256.0,"pitch":42,"accidental":0,"velocity":100,"art":[],"hand":"<","color":null,"colorMidiNote":null,"blackNoteDirection":null,"stemLengthMm":null,"stopSignColor":null},{"id":247,"time":15104.0,"duration":256.0,"pitch":49,"accidental":0,"velocity":100,"art":[],"hand":"<","color":null,"colorMidiNote":null,"blackNoteDirection":null,"stemLengthMm":null,"stopSignColor":null},{"id":283,"time":15104.0,"duration":256.0,"pitch":58,"accidental":0,"velocity":100,"art":[],"hand":">","color":null,"colorMidiNote":null,"blackNoteDirection":null,"stemLengthMm":null,"stopSignColor":null},{"id":284,"time":15104.0,"duration":256.0,"pitch":66,"accidental":0,"velocity":100,"art":[],"hand":">","color":null,"colorMidiNote":null,"blackNoteDirection":null,"stemLengthMm":null,"stopSignColor":null},{"id":248,"time":15360.0,"duration":1024.0,"pitch":18,"accidental":0,"velocity":100,"art":[],"hand":"<","color":null,"colorMidiNote":null,"blackNoteDirection":null,"stemLengthMm":null,"stopSignColor":null},{"id":249,"time":15360.0,"duration":1024.0,"pitch":25,"accidental":0,"velocity":100,"art":[],"hand":"<","color":null,"colorMidiNote":null,"blackNoteDirection":null,"stemLengthMm":null,"stopSignColor":null},{"id":285,"time":15360.0,"duration":1024.0,"pitch":42,"accidental":0,"velocity":100,"art":[],"hand":">","color":null,"colorMidiNote":null,"blackNoteDirection":null,"stemLengthMm":null,"stopSignColor":null},{"id":286,"time":15360.0,"duration":1024.0,"pitch":34,"accidental":0,"velocity":100,"art":[],"hand":">","color":null,"colorMidiNote":null,"blackNoteDirection":null,"stemLengthMm":null,"stopSignColor":null}],"graceNote":[],"countLine":[],"startRepeat":[],"endRepeat":[],"section":[],"beam":[],"text":[],"slur":[],"tempo":[]}}],"fileSettings":{"quarterNoteUnit":256.0,"zoomPixelsQuarter":172.8,"_editorRenderedStave":1,"drawScale":0.75}}