{"metaInfo":{"appName":"pianoTAB","extension":".piano","description":"pianoTAB score file","version":"1.0","author":"pianoTAB Team","license":"MIT"},"header":{"title":"Untitled","subtitle":"","composer":"","arranger":"","lyricist":"","publisher":"","copyright":"Copyright \u00a9 2025, pianoTAB. All rights reserved.","created":"19-11-2025_09:03:18","modificationStamp":"19-11-2025_12:28:28","genre":"","comment":""},"properties":{"globalNote":{"color":"#000000","colorLeftMidiNote":"#dddddd","colorRightMidiNote":"#dddddd","stemWidthMm":0.25,"stemLengthMm":10.0,"beamWidthMm":0.25,"blackNoteDirection":"v","leftDotSizeScale":0.3,"noteHeadVisible?":true,"stemVisible?":true,"midiNoteVisible?":true,"accidentalVisible?":true,"noteStopVisible?":true,"continuationDotVisible?":true,"leftDotVisible?":true,"stopSignType":"pianoTAB","stopSignColor":"#000000"},"globalArticulation":{"color":"#000000","visible?":true},"globalBeam":{"color":"#000000","widthMm":4.0,"slant":5.0,"visible?":true},"globalGraceNote":{"color":"#000000","visible?":true},"globalCountLine":{"color":"#000000","widthMm":1.0,"dashPattern":[],"visible?":true},"globalSlur":{"color":"#000000","middleWidthMm":1.0,"startEndWidthMm":0.5,"visible?":true},"globalText":{"size":12,"color":"#000000","visible?":true},"globalBasegrid":{"gridlineColor":"#000000","gridlineWidthMm":0.125,"gridlineDashPattern":[2,2],"gridlineVisible?":true,"barlineColor":"#000000","barlineWidthMm":0.25,"barlineVisible?":true},"globalMeasureNumbering":{"color":"#000000","fontSize":12,"measureNumberingVisible?":true,"inStepsOf":1,"skipCount":[],"numberAtStartOfLine?":false},"globalStave":{"twoLineColor":"#000000","threeLineColor":"#000000","clefColor":"#000000","twoLineWidth":0.125,"threeLineWidth":0.25,"clefWidth":0.125,"visible?":true,"clefDashPattern":[2,2]},"globalPage":{"width":210.0,"height":297.0,"marginLeft":5.0,"marginRight":5.0,"marginUp":10.0,"marginDown":10.0,"headerHeight":12.5,"footerHeight":12.5},"globalSection":{"color":"#000000","lineWidth":1.0,"visible?":true},"globalStartRepeat":{"color":"#000000","lineWidth":1.0,"visible?":true},"globalEndrepeat":{"color":"#000000","lineWidth":1.0,"visible?":true}},"baseGrid":[{"numerator":4,"denominator":4,"gridTimes":[256.0,512.0,768.0],"measureAmount":8,"timeSignatureIndicatorVisible?":true}],"lineBreak":[{"id":93,"time":0.0,"type":"locked","staveRange":[{"lowestKey":0,"highestKey":0}]}],"stave":[{"name":"Stave 1","scale":1.0,"event":{"note":[{"id":1,"time":0.0,"duration":256.0,"pitch":58,"accidental":0,"velocity":100,"art":[],"hand":">","color":null,"colorMidiNote":null,"blackNoteDirection":null,"stemLengthMm":null,"stopSignColor":null},{"id":2,"time":0.0,"duration":256.0,"pitch":42,"accidental":0,"velocity":100,"art":[],"hand":"<","color":null,"colorMidiNote":null,"blackNoteDirection":null,"stemLengthMm":null,"stopSignColor":null},{"id":3,"time":0.0,"duration":512.0,"pitch":49,"accidental":0,"velocity":100,"art":[],"hand":"<","color":null,"colorMidiNote":null,"blackNoteDirection":null,"stemLengthMm":null,"stopSignColor":null},{"id":4,"time":256.0,"duration":256.0,"pitch":59,"accidental":0,"velocity":100,"art":[],"hand":">","color":null,"colorMidiNote":null,"blackNoteDirection":null,"stemLengthMm":null,"stopSignColor":null},{"id":5,"time":256.0,"duration":256.0,"pitch":44,"accidental":0,"velocity":100,"art":[],"hand":"<","color":null,"colorMidiNote":null,"blackNoteDirection":null,"stemLengthMm":null,"stopSignColor":null},{"id":6,"time":512.0,"duration":256.0,"pitch":61,"accidental":0,"velocity":100,"art":[],"hand":">","color":null,"colorMidiNote":null,"blackNoteDirection":null,"stemLengthMm":null,"stopSignColor":null},{"id":7,"time":512.0,"duration":512.0,"pitch":46,"accidental":0,"velocity":100,"art":[],"hand":"<","color":null,"colorMidiNote":null,"blackNoteDirection":null,"stemLengthMm":null,"stopSignColor":null},{"id":8,"time":512.0,"duration":512.0,"pitch":49,"accidental":0,"velocity":100,"art":[],"hand":"<","color":null,"colorMidiNote":null,"blackNoteDirection":null,"stemLengthMm":null,"stopSignColor":null},{"id":9,"time":768.0,"duration":256.0,"pitch":54,"accidental":0,"velocity":100,"art":[],"hand":">","color":null,"colorMidiNote":null,"blackNoteDirection":null,"stemLengthMm":null,"stopSignColor":null},{"id":10,"time":1024.0,"duration":256.0,"pitch":56,"accidental":0,"velocity":100,"art":[],"hand":">","color":null,"colorMidiNote":null,"blackNoteDirection":null,"stemLengthMm":null,"stopSignColor":null},{"id":11,"time":1024.0,"duration":512.0,"pitch":51,"accidental":0,"velocity":100,"art":[],"hand":"<","color":null,"colorMidiNote":null,"blackNoteDirection":null,"stemLengthMm":null,"stopSignColor":null},{"id":12,"time":1024.0,"duration":512.0,"pitch":47,"accidental":0,"velocity":100,"art":[],"hand":"<","color":null,"colorMidiNote":null,"blackNoteDirection":null,"stemLengthMm":null,"stopSignColor":null},{"id":13,"time":1280.0,"duration":256.0,"pitch":53,"accidental":0,"velocity":100,"art":[],"hand":">","color":null,"colorMidiNote":null,"blackNoteDirection":null,"stemLengthMm":null,"stopSignColor":null},{"id":14,"time":1536.0,"duration":256.0,"pitch":51,"accidental":0,"velocity":100,"art":[],"hand":">","color":null,"colorMidiNote":null,"blackNoteDirection":null,"stemLengthMm":null,"stopSignColor":null},{"id":15,"time":1536.0,"duration":256.0,"pitch":49,"accidental":0,"velocity":100,"art":[],"hand":"<","color":null,"colorMidiNote":null,"blackNoteDirection":null,"stemLengthMm":null,"stopSignColor":null},{"id":16,"time":1536.0,"duration":256.0,"pitch":46,"accidental":0,"velocity":100,"art":[],"hand":"<","color":null,"colorMidiNote":null,"blackNoteDirection":null,"stemLengthMm":null,"stopSignColor":null},{"id":17,"time":1792.0,"duration":256.0,"pitch":49,"accidental":0,"velocity":100,"art":[],"hand":">","color":null,"colorMidiNote":null,"blackNoteDirection":null,"stemLengthMm":null,"stopSignColor":null},{"id":18,"time":1792.0,"duration":256.0,"pitch":47,"accidental":0,"velocity":100,"art":[],"hand":"<","color":null,"colorMidiNote":null,"blackNoteDirection":null,"stemLengthMm":null,"stopSignColor":null},{"id":19,"time":1792.0,"duration":256.0,"pitch":37,"accidental":0,"velocity":100,"art":[],"hand":"<","color":null,"colorMidiNote":null,"blackNoteDirection":null,"stemLengthMm":null,"stopSignColor":null},{"id":20,"time":2048.0,"duration":256.0,"pitch":58,"accidental":0,"velocity":100,"art":[],"hand":">","color":null,"colorMidiNote":null,"blackNoteDirection":null,"stemLengthMm":null,"stopSignColor":null},{"id":21,"time":2048.0,"duration":256.0,"pitch":42,"accidental":0,"velocity":100,"art":[],"hand":"<","color":null,"colorMidiNote":null,"blackNoteDirection":null,"stemLengthMm":null,"stopSignColor":null},{"id":22,"time":2048.0,"duration":512.0,"pitch":49,"accidental":0,"velocity":100,"art":[],"hand":"<","color":null,"colorMidiNote":null,"blackNoteDirection":null,"stemLengthMm":null,"stopSignColor":null},{"id":23,"time":2304.0,"duration":256.0,"pitch":59,"accidental":0,"velocity":100,"art":[],"hand":">","color":null,"colorMidiNote":null,"blackNoteDirection":null,"stemLengthMm":null,"stopSignColor":null},{"id":24,"time":2304.0,"duration":256.0,"pitch":44,"accidental":0,"velocity":100,"art":[],"hand":"<","color":null,"colorMidiNote":null,"blackNoteDirection":null,"stemLengthMm":null,"stopSignColor":null},{"id":25,"time":2560.0,"duration":256.0,"pitch":61,"accidental":0,"velocity":100,"art":[],"hand":">","color":null,"colorMidiNote":null,"blackNoteDirection":null,"stemLengthMm":null,"stopSignColor":null},{"id":26,"time":2560.0,"duration":512.0,"pitch":46,"accidental":0,"velocity":100,"art":[],"hand":"<","color":null,"colorMidiNote":null,"blackNoteDirection":null,"stemLengthMm":null,"stopSignColor":null},{"id":27,"time":2560.0,"duration":512.0,"pitch":49,"accidental":0,"velocity":100,"art":[],"hand":"<","color":null,"colorMidiNote":null,"blackNoteDirection":null,"stemLengthMm":null,"stopSignColor":null},{"id":28,"time":2816.0,"duration":256.0,"pitch":58,"accidental":0,"velocity":100,"art":[],"hand":">","color":null,"colorMidiNote":null,"blackNoteDirection":null,"stemLengthMm":null,"stopSignColor":null},{"id":29,"time":3072.0,"duration":256.0,"pitch":54,"accidental":0,"velocity":100,"art":[],"hand":">","color":null,"colorMidiNote":null,"blackNoteDirection":null,"stemLengthMm":null,"stopSignColor":null},{"id":30,"time":3072.0,"duration":256.0,"pitch":51,"accidental":0,"velocity":100,"art":[],"hand":"<","color":null,"colorMidiNote":null,"blackNoteDirection":null,"stemLengthMm":null,"stopSignColor":null},{"id":31,"time":3328.0,"duration":256.0,"pitch":53,"accidental":0,"velocity":100,"art":[],"hand":">","color":null,"colorMidiNote":null,"blackNoteDirection":null,"stemLengthMm":null,"stopSignColor":null},{"id":32,"time":3328.0,"duration":256.0,"pitch":46,"accidental":0,"velocity":100,"art":[],"hand":"<","color":null,"colorMidiNote":null,"blackNoteDirection":null,"stemLengthMm":null,"stopSignColor":null},{"id":33,"time":3328.0,"duration":256.0,"pitch":49,"accidental":0,"velocity":100,"art":[],"hand":"<","color":null,"colorMidiNote":null,"blackNoteDirection":null,"stemLengthMm":null,"stopSignColor":null},{"id":34,"time":3584.0,"duration":384.0,"pitch":56,"accidental":0,"velocity":100,"art":[],"hand":">","color":null,"colorMidiNote":null,"blackNoteDirection":null,"stemLengthMm":null,"stopSignColor":null},{"id":35,"time":3584.0,"duration":512.0,"pitch":47,"accidental":0,"velocity":100,"art":[],"hand":"<","color":null,"colorMidiNote":null,"blackNoteDirection":null,"stemLengthMm":null,"stopSignColor":null},{"id":36,"time":3584.0,"duration":256.0,"pitch":39,"accidental":0,"velocity":100,"art":[],"hand":"<","color":null,"colorMidiNote":null,"blackNoteDirection":null,"stemLengthMm":null,"stopSignColor":null},{"id":37,"time":3840.0,"duration":256.0,"pitch":35,"accidental":0,"velocity":100,"art":[],"hand":"<","color":null,"colorMidiNote":null,"blackNoteDirection":null,"stemLengthMm":null,"stopSignColor":null},{"id":38,"time":3968.0,"duration":128.0,"pitch":56,"accidental":0,"velocity":100,"art":[],"hand":">","color":null,"colorMidiNote":null,"blackNoteDirection":null,"stemLengthMm":null,"stopSignColor":null},{"id":39,"time":4096.0,"duration":256.0,"pitch":58,"accidental":0,"velocity":100,"art":[],"hand":">","color":null,"colorMidiNote":null,"blackNoteDirection":null,"stemLengthMm":null,"stopSignColor":null},{"id":40,"time":4096.0,"duration":256.0,"pitch":43,"accidental":0,"velocity":100,"art":[],"hand":"<","color":null,"colorMidiNote":null,"blackNoteDirection":null,"stemLengthMm":null,"stopSignColor":null},{"id":41,"time":4096.0,"duration":128.0,"pitch":51,"accidental":0,"velocity":100,"art":[],"hand":"<","color":null,"colorMidiNote":null,"blackNoteDirection":null,"stemLengthMm":null,"stopSignColor":null},{"id":42,"time":4224.0,"duration":128.0,"pitch":49,"accidental":0,"velocity":100,"art":[],"hand":"<","color":null,"colorMidiNote":null,"blackNoteDirection":null,"stemLengthMm":null,"stopSignColor":null},{"id":43,"time":4352.0,"duration":256.0,"pitch":59,"accidental":0,"velocity":100,"art":[],"hand":">","color":null,"colorMidiNote":null,"blackNoteDirection":null,"stemLengthMm":null,"stopSignColor":null},{"id":44,"time":4352.0,"duration":256.0,"pitch":44,"accidental":0,"velocity":100,"art":[],"hand":"<","color":null,"colorMidiNote":null,"blackNoteDirection":null,"stemLengthMm":null,"stopSignColor":null},{"id":45,"time":4352.0,"duration":128.0,"pitch":47,"accidental":0,"velocity":100,"art":[],"hand":"<","color":null,"colorMidiNote":null,"blackNoteDirection":null,"stemLengthMm":null,"stopSignColor":null},{"id":46,"time":4480.0,"duration":128.0,"pitch":51,"accidental":0,"velocity":100,"art":[],"hand":"<","color":null,"colorMidiNote":null,"blackNoteDirection":null,"stemLengthMm":null,"stopSignColor":null},{"id":47,"time":4608.0,"duration":128.0,"pitch":58,"accidental":0,"velocity":100,"art":[],"hand":">","color":null,"colorMidiNote":null,"blackNoteDirection":null,"stemLengthMm":null,"stopSignColor":null},{"id":48,"time":4608.0,"duration":256.0,"pitch":46,"accidental":0,"velocity":100,"art":[],"hand":"<","color":null,"colorMidiNote":null,"blackNoteDirection":null,"stemLengthMm":null,"stopSignColor":null},{"id":49,"time":4608.0,"duration":128.0,"pitch":50,"accidental":0,"velocity":100,"art":[],"hand":"<","color":null,"colorMidiNote":null,"blackNoteDirection":null,"stemLengthMm":null,"stopSignColor":null},{"id":50,"time":4736.0,"duration":128.0,"pitch":56,"accidental":0,"velocity":100,"art":[],"hand":">","color":null,"colorMidiNote":null,"blackNoteDirection":null,"stemLengthMm":null,"stopSignColor":null},{"id":51,"time":4736.0,"duration":128.0,"pitch":53,"accidental":0,"velocity":100,"art":[],"hand":"<","color":null,"colorMidiNote":null,"blackNoteDirection":null,"stemLengthMm":null,"stopSignColor":null},{"id":52,"time":4864.0,"duration":256.0,"pitch":51,"accidental":0,"velocity":100,"art":[],"hand":">","color":null,"colorMidiNote":null,"blackNoteDirection":null,"stemLengthMm":null,"stopSignColor":null},{"id":53,"time":4864.0,"duration":256.0,"pitch":47,"accidental":0,"velocity":100,"art":[],"hand":"<","color":null,"colorMidiNote":null,"blackNoteDirection":null,"stemLengthMm":null,"stopSignColor":null},{"id":54,"time":5120.0,"duration":128.0,"pitch":53,"accidental":0,"velocity":100,"art":[],"hand":">","color":null,"colorMidiNote":null,"blackNoteDirection":null,"stemLengthMm":null,"stopSignColor":null},{"id":55,"time":5120.0,"duration":256.0,"pitch":44,"accidental":0,"velocity":100,"art":[],"hand":"<","color":null,"colorMidiNote":null,"blackNoteDirection":null,"stemLengthMm":null,"stopSignColor":null},{"id":56,"time":5120.0,"duration":256.0,"pitch":47,"accidental":0,"velocity":100,"art":[],"hand":"<","color":null,"colorMidiNote":null,"blackNoteDirection":null,"stemLengthMm":null,"stopSignColor":null},{"id":57,"time":5248.0,"duration":128.0,"pitch":54,"accidental":0,"velocity":100,"art":[],"hand":">","color":null,"colorMidiNote":null,"blackNoteDirection":null,"stemLengthMm":null,"stopSignColor":null},{"id":58,"time":5376.0,"duration":128.0,"pitch":58,"accidental":0,"velocity":100,"art":[],"hand":">","color":null,"colorMidiNote":null,"blackNoteDirection":null,"stemLengthMm":null,"stopSignColor":null},{"id":59,"time":5376.0,"duration":256.0,"pitch":46,"accidental":0,"velocity":100,"art":[],"hand":"<","color":null,"colorMidiNote":null,"blackNoteDirection":null,"stemLengthMm":null,"stopSignColor":null},{"id":60,"time":5376.0,"duration":256.0,"pitch":49,"accidental":0,"velocity":100,"art":[],"hand":"<","color":null,"colorMidiNote":null,"blackNoteDirection":null,"stemLengthMm":null,"stopSignColor":null},{"id":61,"time":5504.0,"duration":128.0,"pitch":56,"accidental":0,"velocity":100,"art":[],"hand":">","color":null,"colorMidiNote":null,"blackNoteDirection":null,"stemLengthMm":null,"stopSignColor":null},{"id":62,"time":5632.0,"duration":128.0,"pitch":51,"accidental":0,"velocity":100,"art":[],"hand":">","color":null,"colorMidiNote":null,"blackNoteDirection":null,"stemLengthMm":null,"stopSignColor":null},{"id":63,"time":5632.0,"duration":512.0,"pitch":47,"accidental":0,"velocity":100,"art":[],"hand":"<","color":null,"colorMidiNote":null,"blackNoteDirection":null,"stemLengthMm":null,"stopSignColor":null},{"id":64,"time":5760.0,"duration":128.0,"pitch":53,"accidental":0,"velocity":100,"art":[],"hand":">","color":null,"colorMidiNote":null,"blackNoteDirection":null,"stemLengthMm":null,"stopSignColor":null},{"id":65,"time":5888.0,"duration":128.0,"pitch":51,"accidental":0,"velocity":100,"art":[],"hand":">","color":null,"colorMidiNote":null,"blackNoteDirection":null,"stemLengthMm":null,"stopSignColor":null},{"id":66,"time":5888.0,"duration":256.0,"pitch":37,"accidental":0,"velocity":100,"art":[],"hand":"<","color":null,"colorMidiNote":null,"blackNoteDirection":null,"stemLengthMm":null,"stopSignColor":null},{"id":67,"time":6016.0,"duration":128.0,"pitch":49,"accidental":0,"velocity":100,"art":[],"hand":">","color":null,"colorMidiNote":null,"blackNoteDirection":null,"stemLengthMm":null,"stopSignColor":null},{"id":68,"time":6144.0,"duration":256.0,"pitch":49,"accidental":0,"velocity":100,"art":[],"hand":">","color":null,"colorMidiNote":null,"blackNoteDirection":null,"stemLengthMm":null,"stopSignColor":null},{"id":69,"time":6144.0,"duration":128.0,"pitch":42,"accidental":0,"velocity":100,"art":[],"hand":"<","color":null,"colorMidiNote":null,"blackNoteDirection":null,"stemLengthMm":null,"stopSignColor":null},{"id":70,"time":6144.0,"duration":128.0,"pitch":46,"accidental":0,"velocity":100,"art":[],"hand":"<","color":null,"colorMidiNote":null,"blackNoteDirection":null,"stemLengthMm":null,"stopSignColor":null},{"id":71,"time":6272.0,"duration":384.0,"pitch":44,"accidental":0,"velocity":100,"art":[],"hand":"<","color":null,"colorMidiNote":null,"blackNoteDirection":null,"stemLengthMm":null,"stopSignColor":null},{"id":72,"time":6272.0,"duration":384.0,"pitch":47,"accidental":0,"velocity":100,"art":[],"hand":"<","color":null,"colorMidiNote":null,"blackNoteDirection":null,"stemLengthMm":null,"stopSignColor":null},{"id":73,"time":6400.0,"duration":128.0,"pitch":54,"accidental":0,"velocity":100,"art":[],"hand":">","color":null,"colorMidiNote":null,"blackNoteDirection":null,"stemLengthMm":null,"stopSignColor":null},{"id":74,"time":6528.0,"duration":128.0,"pitch":56,"accidental":0,"velocity":100,"art":[],"hand":">","color":null,"colorMidiNote":null,"blackNoteDirection":null,"stemLengthMm":null,"stopSignColor":null},{"id":75,"time":6656.0,"duration":256.0,"pitch":58,"accidental":0,"velocity":100,"art":[],"hand":">","color":null,"colorMidiNote":null,"blackNoteDirection":null,"stemLengthMm":null,"stopSignColor":null},{"id":76,"time":6656.0,"duration":128.0,"pitch":46,"accidental":0,"velocity":100,"art":[],"hand":"<","color":null,"colorMidiNote":null,"blackNoteDirection":null,"stemLengthMm":null,"stopSignColor":null},{"id":77,"time":6656.0,"duration":128.0,"pitch":49,"accidental":0,"velocity":100,"art":[],"hand":"<","color":null,"colorMidiNote":null,"blackNoteDirection":null,"stemLengthMm":null,"stopSignColor":null},{"id":78,"time":6784.0,"duration":256.0,"pitch":47,"accidental":0,"velocity":100,"art":[],"hand":"<","color":null,"colorMidiNote":null,"blackNoteDirection":null,"stemLengthMm":null,"stopSignColor":null},{"id":79,"time":6784.0,"duration":256.0,"pitch":49,"accidental":0,"velocity":100,"art":[],"hand":"<","color":null,"colorMidiNote":null,"blackNoteDirection":null,"stemLengthMm":null,"stopSignColor":null},{"id":80,"time":6912.0,"duration":256.0,"pitch":61,"accidental":0,"velocity":100,"art":[],"hand":">","color":null,"colorMidiNote":null,"blackNoteDirection":null,"stemLengthMm":null,"stopSignColor":null},{"id":81,"time":7040.0,"duration":128.0,"pitch":49,"accidental":0,"velocity":100,"art":[],"hand":"<","color":null,"colorMidiNote":null,"blackNoteDirection":null,"stemLengthMm":null,"stopSignColor":null},{"id":82,"time":7040.0,"duration":512.0,"pitch":54,"accidental":0,"velocity":100,"art":[],"hand":"<","color":null,"colorMidiNote":null,"blackNoteDirection":null,"stemLengthMm":null,"stopSignColor":null},{"id":83,"time":7168.0,"duration":128.0,"pitch":59,"accidental":0,"velocity":100,"art":[],"hand":">","color":null,"colorMidiNote":null,"blackNoteDirection":null,"stemLengthMm":null,"stopSignColor":null},{"id":84,"time":7168.0,"duration":128.0,"pitch":51,"accidental":0,"velocity":100,"art":[],"hand":"<","color":null,"colorMidiNote":null,"blackNoteDirection":null,"stemLengthMm":null,"stopSignColor":null},{"id":85,"time":7296.0,"duration":128.0,"pitch":58,"accidental":0,"velocity":100,"art":[],"hand":">","color":null,"colorMidiNote":null,"blackNoteDirection":null,"stemLengthMm":null,"stopSignColor":null},{"id":86,"time":7296.0,"duration":128.0,"pitch":49,"accidental":0,"velocity":100,"art":[],"hand":"<","color":null,"colorMidiNote":null,"blackNoteDirection":null,"stemLengthMm":null,"stopSignColor":null},{"id":87,"time":7424.0,"duration":256.0,"pitch":56,"accidental":0,"velocity":100,"art":[],"hand":">","color":null,"colorMidiNote":null,"blackNoteDirection":null,"stemLengthMm":null,"stopSignColor":null},{"id":88,"time":7424.0,"duration":128.0,"pitch":47,"accidental":0,"velocity":100,"art":[],"hand":"<","color":null,"colorMidiNote":null,"blackNoteDirection":null,"stemLengthMm":null,"stopSignColor":null},{"id":89,"time":7552.0,"duration":128.0,"pitch":53,"accidental":0,"velocity":100,"art":[],"hand":"<","color":null,"colorMidiNote":null,"blackNoteDirection":null,"stemLengthMm":null,"stopSignColor":null},{"id":90,"time":7552.0,"duration":128.0,"pitch":49,"accidental":0,"velocity":100,"art":[],"hand":"<","color":null,"colorMidiNote":null,"blackNoteDirection":null,"stemLengthMm":null,"stopSignColor":null},{"id":91,"time":7680.0,"duration":512.0,"pitch":54,"accidental":0,"velocity":100,"art":[],"hand":">","color":null,"colorMidiNote":null,"blackNoteDirection":null,"stemLengthMm":null,"stopSignColor":null},{"id":92,"time":7680.0,"duration":512.0,"pitch":42,"accidental":0,"velocity":100,"art":[],"hand":"<","color":null,"colorMidiNote":null,"blackNoteDirection":null,"stemLengthMm":null,"stopSignColor":null}],"graceNote":[],"countLine":[],"startRepeat":[],"endRepeat":[],"section":[],"beam":[],"text":[],"slur":[],"tempo":[]}}],"fileSettings":{"quarterNoteUnit":256.0,"zoomPixelsQuarter":100.0,"_editorRenderedStave":1,"drawScale":0.75}}