{"metaInfo":{"appName":"pianoTAB","extension":".piano","description":"pianoTAB score file","version":"1.0","created":"12-11-2025_08:34:56","author":"pianoTAB Team","license":"MIT"},"header":{"title":"Untitled","subtitle":"","composer":"","arranger":"","lyricist":"","publisher":"","copyright":"Copyright \u00a9 2025, pianoTAB. All rights reserved.","timeStamp":"12-11-2025_08:34:56","genre":"","comment":""},"properties":{"globalNote":{"color":"#000000","colorLeftMidiNote":"#dddddd","colorRightMidiNote":"#dddddd","stemWidthMm":0.25,"stemLengthMm":10.0,"beamWidthMm":0.25,"blackNoteDirection":"v","leftDotSizeScale":0.3,"noteHeadVisible?":true,"stemVisible?":true,"midiNoteVisible?":true,"accidentalVisible?":true,"noteStopVisible?":true,"continuationDotVisible?":true,"leftDotVisible?":true,"stopSignType":"pianoTAB"},"globalArticulation":{"color":"#000000","visible?":true},"globalBeam":{"color":"#000000","widthMm":4.0,"slant":5.0,"visible?":true},"globalGraceNote":{"color":"#000000","visible?":true},"globalCountLine":{"color":"#000000","widthMm":1.0,"dashPattern":[],"visible?":true},"globalSlur":{"color":"#000000","middleWidthMm":1.0,"startEndWidthMm":0.5,"visible?":true},"globalText":{"size":12,"color":"#000000","visible?":true},"globalBarLine":{"color":"#000000","widthMm":1.0,"visible?":true},"globalBasegrid":{"gridlineColor":"#000000","gridlineWidthMm":0.125,"gridlineDashPattern":[2,2],"gridlineVisible?":true,"barlineColor":"#000000","barlineWidthMm":0.25,"barlineVisible?":true},"globalMeasureNumbering":{"color":"#000000","fontSize":12,"measureNumberingVisible?":true,"inStepsOf":1,"skipCount":[],"numberAtStartOfLine?":false},"globalStave":{"twoLineColor":"#000000","threeLineColor":"#000000","clefColor":"#000000","twoLineWidth":0.125,"threeLineWidth":0.25,"clefWidth":0.125,"visible?":true,"clefDashPattern":[2,2]},"globalPage":{"width":210.0,"height":297.0,"marginLeft":5.0,"marginRight":5.0,"marginUp":10.0,"marginDown":10.0,"headerHeight":12.5,"footerHeight":12.5},"globalSection":{"color":"#000000","lineWidth":1.0,"visible?":true},"globalStartRepeat":{"color":"#000000","lineWidth":1.0,"visible?":true},"globalEndrepeat":{"color":"#000000","lineWidth":1.0,"visible?":true},"editorZoomPixelsQuarter":250,"drawScale":0.75},"baseGrid":[{"numerator":4,"denominator":4,"gridTimes":[256.0,512.0,768.0],"measureAmount":8,"timeSignatureIndicatorVisible?":true}],"lineBreak":[{"id":19,"time":0.0,"type":"locked","staveRange":[{"lowestKey":0,"highestKey":0}]}],"stave":[{"name":"Stave 1","scale":1.0,"event":{"note":[{"id":1,"time":0.0,"duration":128.0,"pitch":48,"velocity":100,"art":[],"hand":">","color":null,"colorMidiNote":null,"blackNoteDirection":null,"stemLengthMm":null},{"id":2,"time":128.0,"duration":128.0,"pitch":51,"velocity":100,"art":[],"hand":">","color":null,"colorMidiNote":null,"blackNoteDirection":null,"stemLengthMm":null},{"id":3,"time":128.0,"duration":128.0,"pitch":20,"velocity":100,"art":[],"hand":"<","color":null,"colorMidiNote":null,"blackNoteDirection":null,"stemLengthMm":null},{"id":4,"time":256.0,"duration":128.0,"pitch":46,"velocity":100,"art":[],"hand":">","color":null,"colorMidiNote":null,"blackNoteDirection":null,"stemLengthMm":null},{"id":5,"time":256.0,"duration":128.0,"pitch":23,"velocity":100,"art":[],"hand":"<","color":null,"colorMidiNote":null,"blackNoteDirection":null,"stemLengthMm":null},{"id":6,"time":384.0,"duration":128.0,"pitch":42,"velocity":100,"art":[],"hand":">","color":null,"colorMidiNote":null,"blackNoteDirection":null,"stemLengthMm":null},{"id":7,"time":384.0,"duration":128.0,"pitch":26,"velocity":100,"art":[],"hand":"<","color":null,"colorMidiNote":null,"blackNoteDirection":null,"stemLengthMm":null},{"id":8,"time":512.0,"duration":128.0,"pitch":49,"velocity":100,"art":[],"hand":">","color":null,"colorMidiNote":null,"blackNoteDirection":null,"stemLengthMm":null},{"id":9,"time":640.0,"duration":128.0,"pitch":40,"velocity":100,"art":[],"hand":">","color":null,"colorMidiNote":null,"blackNoteDirection":null,"stemLengthMm":null},{"id":10,"time":640.0,"duration":128.0,"pitch":15,"velocity":100,"art":[],"hand":"<","color":null,"colorMidiNote":null,"blackNoteDirection":null,"stemLengthMm":null},{"id":11,"time":768.0,"duration":128.0,"pitch":42,"velocity":100,"art":[],"hand":">","color":null,"colorMidiNote":null,"blackNoteDirection":null,"stemLengthMm":null},{"id":12,"time":768.0,"duration":128.0,"pitch":26,"velocity":100,"art":[],"hand":"<","color":null,"colorMidiNote":null,"blackNoteDirection":null,"stemLengthMm":null},{"id":13,"time":896.0,"duration":128.0,"pitch":63,"velocity":100,"art":[],"hand":"<","color":null,"colorMidiNote":null,"blackNoteDirection":null,"stemLengthMm":null},{"id":14,"time":896.0,"duration":256.0,"pitch":27,"velocity":100,"art":[],"hand":"<","color":null,"colorMidiNote":null,"blackNoteDirection":null,"stemLengthMm":null},{"id":15,"time":1024.0,"duration":128.0,"pitch":32,"velocity":100,"art":[],"hand":"<","color":null,"colorMidiNote":null,"blackNoteDirection":null,"stemLengthMm":null},{"id":16,"time":1280.0,"duration":128.0,"pitch":15,"velocity":100,"art":[],"hand":"<","color":null,"colorMidiNote":null,"blackNoteDirection":null,"stemLengthMm":null},{"id":17,"time":1408.0,"duration":128.0,"pitch":21,"velocity":100,"art":[],"hand":"<","color":null,"colorMidiNote":null,"blackNoteDirection":null,"stemLengthMm":null},{"id":18,"time":1536.0,"duration":128.0,"pitch":26,"velocity":100,"art":[],"hand":"<","color":null,"colorMidiNote":null,"blackNoteDirection":null,"stemLengthMm":null},{"id":20,"time":1792.0,"duration":128.0,"pitch":15,"velocity":100,"art":[],"hand":"<","color":null,"colorMidiNote":null,"blackNoteDirection":null,"stemLengthMm":null},{"id":21,"time":1920.0,"duration":128.0,"pitch":21,"velocity":100,"art":[],"hand":"<","color":null,"colorMidiNote":null,"blackNoteDirection":null,"stemLengthMm":null},{"id":22,"time":2048.0,"duration":128.0,"pitch":26,"velocity":100,"art":[],"hand":"<","color":null,"colorMidiNote":null,"blackNoteDirection":null,"stemLengthMm":null}],"graceNote":[],"countLine":[],"startRepeat":[],"endRepeat":[],"section":[],"beam":[],"text":[],"slur":[],"tempo":[]}}],"quarterNoteUnit":256.0}